<svg xmlns="http://www.w3.org/2000/svg" viewBox="0 0 512 512">
  <defs>
    <linearGradient id="goldGradient" x1="0%" y1="0%" x2="100%" y2="100%">
      <stop offset="0%" stop-color="#FFD700" />  <!-- Bright gold -->
      <stop offset="50%" stop-color="#FFC300" /> <!-- Warm gold -->
      <stop offset="100%" stop-color="#B8860B" /> <!-- Darker goldenrod -->
    </linearGradient>
  </defs>
  <path fill="url(#goldGradient)" d="M0 256a256 256 0 1 0 512 0A256 256 0 1 0 0 256zm395.3 11.3l-112 112c-4.6 4.6-11.5 5.9-17.4 3.5s-9.9-8.3-9.9-14.8l0-64-96 0c-17.7 0-32-14.3-32-32l0-32c0-17.7 14.3-32 32-32l96 0 0-64c0-6.5 3.9-12.3 9.9-14.8s12.9-1.1 17.4 3.5l112 112c6.2 6.2 6.2 16.4 0 22.6z"/>
</svg>
